<svg xmlns="http://www.w3.org/2000/svg" viewBox="-64 -64 640 640">
	<rect x="-64" y="-64" width="640" height="640" fill="#1e293b" />
	<rect width="512" height="512" fill="#1e293b" />
	<g fill="none" stroke="#e8c468" stroke-linecap="round">
		<circle cx="256" cy="256" r="176" stroke-width="18" />
		<circle cx="256" cy="256" r="124" stroke-width="10" />
		<circle cx="256" cy="256" r="58" stroke-width="10" />
		<g stroke-width="8">
			<path d="M256 80v52M256 380v52M80 256h52M380 256h52" />
			<path d="M344 103.6l-26 45M194 362.4l-26 45M103.6 168l45 26M362.4 318l45 26" />
			<path d="M408.4 168l-45 26M148.6 318l-45 26M344 408.4l-26-45M194 149.6l-26-45" />
		</g>
	</g>
	<circle cx="256" cy="256" r="18" fill="#e8c468" />
</svg>
